<mxfile host="app.diagrams.net" agent="Mozilla/5.0 (Windows NT 10.0; Win64; x64) AppleWebKit/537.36 (KHTML, like Gecko) Chrome/135.0.0.0 Safari/537.36" version="26.1.3">
  <diagram name="Strona-1" id="A_q9at1dTc8IhGm0fnzF">
    <mxGraphModel dx="300" dy="522" grid="1" gridSize="10" guides="1" tooltips="1" connect="1" arrows="1" fold="1" page="1" pageScale="1" pageWidth="750" pageHeight="200" math="0" shadow="0">
      <root>
        <mxCell id="0" />
        <mxCell id="1" parent="0" />
        <mxCell id="kJhglFQ84ahEc8-oS5Is-9" style="edgeStyle=orthogonalEdgeStyle;rounded=0;orthogonalLoop=1;jettySize=auto;html=1;exitX=1;exitY=0.5;exitDx=0;exitDy=0;entryX=0;entryY=0.5;entryDx=0;entryDy=0;" edge="1" parent="1" source="kJhglFQ84ahEc8-oS5Is-3" target="kJhglFQ84ahEc8-oS5Is-4">
          <mxGeometry relative="1" as="geometry" />
        </mxCell>
        <mxCell id="kJhglFQ84ahEc8-oS5Is-3" value="&lt;font style=&quot;font-size: 20px;&quot;&gt;Q0&lt;/font&gt;" style="ellipse;whiteSpace=wrap;html=1;aspect=fixed;fillColor=none;" vertex="1" parent="1">
          <mxGeometry x="830" y="15" width="80" height="80" as="geometry" />
        </mxCell>
        <mxCell id="kJhglFQ84ahEc8-oS5Is-10" style="edgeStyle=orthogonalEdgeStyle;rounded=0;orthogonalLoop=1;jettySize=auto;html=1;exitX=1;exitY=0.5;exitDx=0;exitDy=0;entryX=0;entryY=0.5;entryDx=0;entryDy=0;" edge="1" parent="1" source="kJhglFQ84ahEc8-oS5Is-4" target="kJhglFQ84ahEc8-oS5Is-5">
          <mxGeometry relative="1" as="geometry" />
        </mxCell>
        <mxCell id="kJhglFQ84ahEc8-oS5Is-4" value="&lt;font style=&quot;font-size: 20px;&quot;&gt;Q1&lt;/font&gt;" style="ellipse;whiteSpace=wrap;html=1;aspect=fixed;fillColor=none;" vertex="1" parent="1">
          <mxGeometry x="1000" y="15" width="80" height="80" as="geometry" />
        </mxCell>
        <mxCell id="kJhglFQ84ahEc8-oS5Is-11" style="edgeStyle=orthogonalEdgeStyle;rounded=0;orthogonalLoop=1;jettySize=auto;html=1;exitX=1;exitY=0.5;exitDx=0;exitDy=0;entryX=0;entryY=0.5;entryDx=0;entryDy=0;" edge="1" parent="1" source="kJhglFQ84ahEc8-oS5Is-5" target="kJhglFQ84ahEc8-oS5Is-6">
          <mxGeometry relative="1" as="geometry" />
        </mxCell>
        <mxCell id="kJhglFQ84ahEc8-oS5Is-5" value="&lt;font style=&quot;font-size: 20px;&quot;&gt;Q2&lt;/font&gt;" style="ellipse;whiteSpace=wrap;html=1;aspect=fixed;fillColor=none;" vertex="1" parent="1">
          <mxGeometry x="1170.5" y="15" width="80" height="80" as="geometry" />
        </mxCell>
        <mxCell id="kJhglFQ84ahEc8-oS5Is-6" value="" style="ellipse;whiteSpace=wrap;html=1;aspect=fixed;fillColor=none;" vertex="1" parent="1">
          <mxGeometry x="1340" y="15" width="80" height="80" as="geometry" />
        </mxCell>
        <mxCell id="kJhglFQ84ahEc8-oS5Is-7" value="&lt;font style=&quot;font-size: 20px;&quot;&gt;Q3&lt;/font&gt;" style="ellipse;whiteSpace=wrap;html=1;aspect=fixed;fillColor=none;" vertex="1" parent="1">
          <mxGeometry x="1345" y="20" width="70" height="70" as="geometry" />
        </mxCell>
        <mxCell id="kJhglFQ84ahEc8-oS5Is-8" value="" style="endArrow=classic;html=1;rounded=0;entryX=0;entryY=0.5;entryDx=0;entryDy=0;" edge="1" parent="1" target="kJhglFQ84ahEc8-oS5Is-3">
          <mxGeometry width="50" height="50" relative="1" as="geometry">
            <mxPoint x="790" y="55" as="sourcePoint" />
            <mxPoint x="1230" y="25" as="targetPoint" />
          </mxGeometry>
        </mxCell>
        <mxCell id="kJhglFQ84ahEc8-oS5Is-12" value="&lt;font style=&quot;font-size: 14px;&quot;&gt;b&lt;br&gt;&lt;br&gt;a/1&lt;/font&gt;" style="text;html=1;align=center;verticalAlign=middle;resizable=0;points=[];autosize=1;strokeColor=none;fillColor=none;" vertex="1" parent="1">
          <mxGeometry x="930" y="25" width="40" height="60" as="geometry" />
        </mxCell>
        <mxCell id="kJhglFQ84ahEc8-oS5Is-13" value="&lt;font style=&quot;font-size: 14px;&quot;&gt;Z&lt;sub style=&quot;&quot;&gt;0&lt;/sub&gt;/Z&lt;sub style=&quot;&quot;&gt;0&lt;/sub&gt;&lt;/font&gt;" style="text;html=1;align=center;verticalAlign=middle;resizable=0;points=[];autosize=1;strokeColor=none;fillColor=none;" vertex="1" parent="1">
          <mxGeometry x="1090" y="25" width="60" height="30" as="geometry" />
        </mxCell>
        <mxCell id="kJhglFQ84ahEc8-oS5Is-14" value="&lt;font style=&quot;font-size: 14px;&quot;&gt;Z&lt;sub style=&quot;&quot;&gt;0&lt;/sub&gt;/1&lt;/font&gt;" style="text;html=1;align=center;verticalAlign=middle;resizable=0;points=[];autosize=1;strokeColor=none;fillColor=none;" vertex="1" parent="1">
          <mxGeometry x="1275" y="25" width="50" height="30" as="geometry" />
        </mxCell>
        <mxCell id="kJhglFQ84ahEc8-oS5Is-17" value="&lt;span style=&quot;font-size: 14px;&quot;&gt;Z&lt;/span&gt;&lt;sub&gt;0&lt;/sub&gt;&lt;span style=&quot;font-size: 14px;&quot;&gt;/Z&lt;/span&gt;&lt;sub&gt;0&lt;/sub&gt;a&lt;br&gt;&lt;font style=&quot;font-size: 14px;&quot;&gt;a/aa&lt;/font&gt;" style="text;html=1;align=center;verticalAlign=middle;resizable=0;points=[];autosize=1;strokeColor=none;fillColor=none;" vertex="1" parent="1">
          <mxGeometry x="840" y="135" width="60" height="50" as="geometry" />
        </mxCell>
        <mxCell id="kJhglFQ84ahEc8-oS5Is-19" value="&lt;font style=&quot;font-size: 14px;&quot;&gt;a&lt;/font&gt;" style="text;html=1;align=center;verticalAlign=middle;resizable=0;points=[];autosize=1;strokeColor=none;fillColor=none;" vertex="1" parent="1">
          <mxGeometry x="855" y="95" width="30" height="30" as="geometry" />
        </mxCell>
        <mxCell id="kJhglFQ84ahEc8-oS5Is-24" value="" style="endArrow=classic;html=1;rounded=0;exitX=1;exitY=1;exitDx=0;exitDy=0;entryX=0;entryY=1;entryDx=0;entryDy=0;strokeColor=default;curved=1;" edge="1" parent="1" source="kJhglFQ84ahEc8-oS5Is-3" target="kJhglFQ84ahEc8-oS5Is-3">
          <mxGeometry width="50" height="50" relative="1" as="geometry">
            <mxPoint x="1230" y="15" as="sourcePoint" />
            <mxPoint x="1180" y="65" as="targetPoint" />
            <Array as="points">
              <mxPoint x="870" y="175" />
            </Array>
          </mxGeometry>
        </mxCell>
        <mxCell id="kJhglFQ84ahEc8-oS5Is-29" value="" style="endArrow=classic;html=1;rounded=0;exitX=1;exitY=1;exitDx=0;exitDy=0;entryX=0;entryY=1;entryDx=0;entryDy=0;strokeColor=default;curved=1;" edge="1" parent="1" target="kJhglFQ84ahEc8-oS5Is-4">
          <mxGeometry width="50" height="50" relative="1" as="geometry">
            <mxPoint x="1068" y="85" as="sourcePoint" />
            <mxPoint x="1012" y="85" as="targetPoint" />
            <Array as="points">
              <mxPoint x="1040" y="177" />
            </Array>
          </mxGeometry>
        </mxCell>
        <mxCell id="kJhglFQ84ahEc8-oS5Is-30" value="&lt;font style=&quot;font-size: 14px;&quot;&gt;b&lt;/font&gt;" style="text;html=1;align=center;verticalAlign=middle;resizable=0;points=[];autosize=1;strokeColor=none;fillColor=none;" vertex="1" parent="1">
          <mxGeometry x="1025" y="95" width="30" height="30" as="geometry" />
        </mxCell>
        <mxCell id="kJhglFQ84ahEc8-oS5Is-31" value="&lt;span style=&quot;font-size: 14px;&quot;&gt;a/1&lt;/span&gt;" style="text;html=1;align=center;verticalAlign=middle;resizable=0;points=[];autosize=1;strokeColor=none;fillColor=none;" vertex="1" parent="1">
          <mxGeometry x="1020" y="135" width="40" height="30" as="geometry" />
        </mxCell>
        <mxCell id="kJhglFQ84ahEc8-oS5Is-35" value="" style="endArrow=classic;html=1;rounded=0;exitX=1;exitY=1;exitDx=0;exitDy=0;entryX=0;entryY=1;entryDx=0;entryDy=0;strokeColor=default;curved=1;" edge="1" parent="1" source="kJhglFQ84ahEc8-oS5Is-5" target="kJhglFQ84ahEc8-oS5Is-5">
          <mxGeometry width="50" height="50" relative="1" as="geometry">
            <mxPoint x="1238.5" y="87" as="sourcePoint" />
            <mxPoint x="1182.5" y="85" as="targetPoint" />
            <Array as="points">
              <mxPoint x="1210.5" y="179" />
            </Array>
          </mxGeometry>
        </mxCell>
        <mxCell id="kJhglFQ84ahEc8-oS5Is-36" value="&lt;font style=&quot;font-size: 14px;&quot;&gt;b&lt;/font&gt;" style="text;html=1;align=center;verticalAlign=middle;resizable=0;points=[];autosize=1;strokeColor=none;fillColor=none;" vertex="1" parent="1">
          <mxGeometry x="1195.5" y="95" width="30" height="30" as="geometry" />
        </mxCell>
        <mxCell id="kJhglFQ84ahEc8-oS5Is-37" value="&lt;font style=&quot;font-size: 14px;&quot;&gt;Z&lt;sub style=&quot;&quot;&gt;0&lt;/sub&gt;/Z&lt;sub style=&quot;&quot;&gt;0&lt;/sub&gt;&lt;/font&gt;" style="text;html=1;align=center;verticalAlign=middle;resizable=0;points=[];autosize=1;strokeColor=none;fillColor=none;" vertex="1" parent="1">
          <mxGeometry x="1180.5" y="135" width="60" height="30" as="geometry" />
        </mxCell>
      </root>
    </mxGraphModel>
  </diagram>
</mxfile>
